Coordinates
version=1
nRows=5
nColumns=42
inDegrees=yes

Units are S.I. units (second, meters, Newtons, ...)
If the header above contains a line with 'inDegrees', this indicates whether rotational values are in degrees (yes) or radians (no).

endheader
time	pelvis_tilt	pelvis_list	pelvis_rotation	pelvis_tx	pelvis_ty	pelvis_tz	hip_flexion_r	hip_adduction_r	hip_rotation_r	knee_angle_r	knee_adduction_r	knee_angle_r_beta	ankle_angle_r	subtalar_angle_r	mtp_angle_r	hip_flexion_l	hip_adduction_l	hip_rotation_l	knee_angle_l	knee_adduction_l	knee_angle_l_beta	ankle_angle_l	subtalar_angle_l	mtp_angle_l	lumbar_extension	lumbar_bending	lumbar_rotation	arm_flex_r	arm_add_r	arm_rot_r	elbow_flex_r	pro_sup_r	wrist_flex_r	wrist_dev_r	arm_flex_l	arm_add_l	arm_rot_l	elbow_flex_l	pro_sup_l	wrist_flex_l	wrist_dev_l
      2.16000000	      6.28384087	      0.41486036	      4.15488052	     -0.11220853	      0.89268682	      0.21602693	     20.61362474	     -2.21369805	    -19.73667388	     53.58832784	     -8.80650668	      0.93529276	      2.37485315	    -13.29455946	     -7.50045515	     -6.96623138	      8.26951562	      3.70258465	     12.25929845	     -5.86181016	      0.21396512	     18.90231794	      2.87509265	     -7.50045515	    -21.99187331	      0.92558043	      2.36389238	      1.81889467	    -21.35659283	     19.34288377	     41.13185987	     90.00000001	      0.00000000	      0.00000000	     16.01711167	    -21.07849109	     27.48469644	     45.00610541	     90.00000001	      0.00000000	      0.00000000
      2.17000000	      6.25184844	      0.38711178	      4.61387647	     -0.10088038	      0.89196638	      0.21531852	     21.31177619	     -2.23605861	    -19.74242377	     50.46840859	     -8.20659389	      0.88083990	      2.80141286	    -12.93150130	     -7.50043668	     -8.05352633	      8.07426314	      3.74393977	     11.73006054	     -5.88397599	      0.20472818	     19.59828712	      3.75354124	     -7.50043668	    -22.04195911	      1.07030726	      1.88279793	      1.06467113	    -21.05651329	     19.25303330	     40.91293777	     90.00000001	      0.00000000	      0.00000000	     17.19011679	    -21.49623891	     27.17319146	     46.00802941	     90.00000001	      0.00000000	      0.00000000
      2.18000000	      5.71966513	      0.74012220	      4.88514522	     -0.08999392	      0.89000795	      0.21458189	     22.81704438	     -2.85737703	    -19.69731187	     47.79949690	     -7.67420688	      0.83425860	      3.16454795	    -12.51201293	     -7.50043071	     -8.31801645	      8.46807109	      3.45490943	     11.67275182	     -5.99549414	      0.20372795	     19.85510192	      3.90008858	     -7.50043071	    -21.59961329	      0.72331746	      1.52512854	      0.19476627	    -20.80428849	     19.36396767	     40.79132971	     90.00000001	      0.00000000	      0.00000000	     18.44561603	    -21.76157822	     26.84980545	     46.72819241	     90.00000001	      0.00000000	      0.00000000
      2.19000000	      5.81247825	      0.44274857	      5.45187502	     -0.07872726	      0.88926573	      0.21398417	     22.89661093	     -2.43024295	    -19.84746610	     43.77220037	     -7.13187459	      0.76396902	      3.67344250	    -11.87819039	     -7.50041970	     -9.49257268	      7.93432493	      4.07398451	     11.28450190	     -6.02796720	      0.19695171	     20.85026049	      4.70709779	     -7.50041970	    -21.81911536	      1.20157675	      1.01028168	     -0.36550199	    -20.45308143	     19.12728366	     40.33666323	     90.00000001	      0.00000000	      0.00000000	     19.57129035	    -22.17585574	     26.59369295	     47.74313574	     90.00000001	      0.00000000	      0.00000000
      2.20000000	      6.15735817	      0.36105207	      5.85161537	     -0.06689473	      0.88858814	      0.21374875	     22.74442605	     -2.25216246	    -21.31593911	     39.81578588	     -7.49684716	      0.69491656	      4.20961244	     -9.82985407	     -7.50039186	    -10.99705197	      7.46153222	      3.88094083	     10.74575192	     -5.83485160	      0.18754875	     21.56901025	      6.01450105	     -7.50039186	    -22.26411298	      1.39940901	      0.74865495	     -1.13648760	    -20.07244274	     18.66050291	     40.19484950	     90.00000001	      0.00000000	      0.00000000	     20.86529334	    -22.46832914	     26.42420309	     48.50695982	     90.00000001	      0.00000000	      0.00000000
